<svg xmlns="http://www.w3.org/2000/svg" xmlns:xlink="http://www.w3.org/1999/xlink" version="1.1" width="1000" height="1000" viewBox="0 0 1000 1000" xml:space="preserve">
<desc>Created with Fabric.js 3.5.0</desc>
<defs>
</defs>
<rect x="0" y="0" width="100%" height="100%" fill="rgba(255,255,255,0)"/>
<g transform="matrix(1 0 0 1 500 500)" id="685642">
<g style="" vector-effect="non-scaling-stroke">
		<g transform="matrix(0.1333 0 0 -0.1333 20.0363 -127.3706)">
<path style="stroke: none; stroke-width: 1; stroke-dasharray: none; stroke-linecap: butt; stroke-dashoffset: 0; stroke-linejoin: miter; stroke-miterlimit: 4; is-custom-font: none; font-file-url: none; fill: rgb(255,255,255); fill-rule: nonzero; opacity: 1;" transform=" translate(-2710.875, -3514.8781)" d="M 1460 5104 c -36 -24 -1096 -1082 -1131 -1128 c -19 -26 -29 -51 -29 -75 c 0 -34 43 -79 978 -1013 l 977 -978 l 45 0 l 45 0 l 520 520 l 520 520 l 86 0 c 138 0 267 44 393 134 c 63 45 179 160 210 209 l 18 27 l 474 0 c 508 0 513 1 540 51 c 21 42 21 1316 0 1358 c -26 49 -42 51 -391 51 l -324 0 l -28 -24 c -24 -21 -29 -33 -33 -93 l -5 -68 l -162 -3 l -162 -2 l -25 -31 c -16 -18 -26 -43 -26 -61 l 0 -31 l -57 6 c -90 10 -158 38 -345 143 c -226 127 -534 278 -628 308 c -111 36 -247 49 -356 36 c -92 -11 -129 -23 -449 -139 l -190 -69 l -175 173 c -96 95 -185 178 -197 184 c -31 16 -65 14 -93 -5 z m 162 -341 c 60 -59 108 -111 108 -114 c 0 -4 -24 -17 -52 -30 c -46 -21 -68 -24 -168 -24 c -100 0 -122 3 -167 24 c -29 13 -53 26 -53 30 c 0 7 212 221 220 221 c 2 0 53 -48 112 -107 z m 1206 -20 c 68 -17 434 -193 602 -290 c 215 -124 299 -158 435 -178 l 80 -11 l 3 -399 l 2 -399 l -37 -54 c -57 -83 -156 -168 -251 -215 c -80 -39 -91 -42 -187 -45 c -187 -7 -326 48 -460 184 l -80 80 l -210 71 c -605 204 -634 215 -681 256 c -50 44 -69 75 -79 128 c -14 76 40 175 112 205 c 66 28 109 19 580 -131 c 252 -80 470 -145 486 -145 c 45 0 87 48 87 100 c 0 65 -23 80 -226 145 c -98 31 -262 83 -364 116 l -185 59 l -188 188 l -188 188 l 53 18 c 29 11 124 45 211 77 c 87 32 186 63 220 68 c 75 12 180 5 265 -16 z m 2092 -693 l 0 -530 l -195 0 l -195 0 l 0 530 l 0 530 l 195 0 l 195 0 l 0 -530 z m -3723 421 c 82 -51 166 -73 288 -79 c 131 -5 230 17 334 75 l 63 35 l 104 -103 c 98 -98 103 -105 82 -113 c -135 -54 -181 -86 -235 -163 c -26 -38 -44 -54 -67 -58 c -74 -16 -195 -85 -258 -149 c -111 -110 -168 -248 -168 -404 c 0 -151 48 -276 148 -383 c 230 -248 600 -249 835 -1 c 52 55 127 184 127 219 c 0 20 12 17 182 -39 l 158 -52 l -6 -96 c -8 -125 12 -218 69 -332 l 44 -86 l -111 -111 l -111 -110 l -90 45 c -193 96 -396 94 -584 -7 l -75 -40 l -508 508 l -507 508 l 29 48 c 17 26 42 82 57 125 c 24 67 27 93 28 197 c 0 137 -21 221 -80 316 l -33 54 l 112 113 c 61 61 114 112 118 112 c 4 0 28 -13 55 -29 z m 3133 -516 l 0 -435 l -90 0 l -90 0 l 0 435 l 0 435 l 90 0 l 90 0 l 0 -435 z m -3520 77 c 32 -102 21 -233 -26 -324 l -16 -31 l -114 114 l -114 114 l 112 113 c 128 128 123 127 158 14 z m 963 -219 c 15 -94 103 -210 202 -269 c 27 -16 104 -48 170 -70 c 135 -47 132 -42 87 -132 c -34 -70 -116 -144 -190 -173 c -79 -31 -195 -31 -274 0 c -75 29 -146 95 -189 173 c -33 60 -34 67 -34 168 c 0 125 17 171 91 251 c 41 43 103 87 125 89 c 4 0 9 -17 12 -37 z m 1266 -753 c 26 -17 63 -35 80 -41 c 17 -6 31 -14 31 -18 c 0 -4 -24 -30 -53 -59 l -53 -52 l -18 37 c -29 59 -55 163 -41 163 c 3 0 27 -14 54 -30 z m -591 -650 c 31 -11 60 -24 66 -30 c 7 -7 -25 -46 -102 -123 l -112 -112 l -110 110 c -60 60 -110 113 -110 117 c 0 11 67 39 130 54 c 68 17 164 10 238 -16 z" stroke-linecap="round"/>
</g>
		<g transform="matrix(0.1333 0 0 -0.1333 124.1945 -163.2376)">
<path style="stroke: none; stroke-width: 1; stroke-dasharray: none; stroke-linecap: butt; stroke-dashoffset: 0; stroke-linejoin: miter; stroke-miterlimit: 4; is-custom-font: none; font-file-url: none; fill: rgb(255,255,255); fill-rule: nonzero; opacity: 1;" transform=" translate(-3491.4838, -3784.2577)" d="M 3425 3856 c -32 -32 -40 -69 -25 -107 c 28 -66 109 -81 161 -30 c 38 39 39 87 3 130 c -22 26 -33 31 -70 31 c -34 0 -51 -6 -69 -24 z" stroke-linecap="round"/>
</g>
		<g transform="matrix(0.1333 0 0 -0.1333 -32.8485 206.6712)">
<path style="stroke: none; stroke-width: 1; stroke-dasharray: none; stroke-linecap: butt; stroke-dashoffset: 0; stroke-linejoin: miter; stroke-miterlimit: 4; is-custom-font: none; font-file-url: none; fill: rgb(255,255,255); fill-rule: nonzero; opacity: 1;" transform=" translate(-2314.2147, -1009.7139)" d="M 1502 2001 c -151 -42 -308 -146 -417 -279 l -56 -67 l -485 -5 l -486 -5 l -29 -33 l -29 -33 l 2 -670 l 3 -671 l 28 -24 l 28 -24 l 338 0 l 338 0 l 27 26 c 23 23 26 35 26 90 l 0 64 l 150 0 c 193 0 230 16 230 100 l 0 32 l 53 -7 c 96 -13 171 -44 332 -136 c 206 -117 561 -291 646 -317 c 162 -50 338 -53 485 -8 c 43 13 306 105 584 205 c 278 100 631 227 785 282 c 310 111 355 132 431 202 c 152 138 184 320 88 496 c -74 138 -239 215 -407 191 c -34 -5 -233 -57 -441 -115 c -209 -58 -381 -105 -382 -105 c -2 0 -17 27 -35 60 c -37 69 -126 157 -191 188 c -46 23 -282 105 -615 216 l -202 67 l -75 72 c -151 146 -314 214 -536 223 c -94 3 -129 1 -188 -15 z m 293 -196 c 39 -8 107 -33 152 -55 c 65 -32 95 -55 153 -117 l 72 -77 l 422 -143 c 263 -90 436 -154 461 -171 c 54 -38 94 -98 101 -154 c 9 -67 -31 -148 -89 -182 c -85 -50 -76 -52 -600 114 c -337 107 -486 150 -503 146 c -44 -11 -74 -50 -74 -95 c 0 -78 -4 -77 520 -243 c 448 -143 479 -151 555 -151 c 171 0 316 103 370 262 l 15 46 l 343 94 c 548 152 514 144 575 132 c 72 -14 110 -44 139 -109 c 45 -96 14 -186 -87 -258 c -33 -23 -259 -108 -820 -309 c -426 -153 -806 -289 -845 -303 c -60 -22 -87 -26 -185 -26 c -79 0 -135 5 -180 17 c -78 22 -446 202 -655 321 c -165 94 -258 130 -382 147 l -83 12 l 0 401 l 0 401 l 51 68 c 55 73 143 149 219 191 c 100 55 223 69 355 41 z m -1205 -885 l 0 -530 l -195 0 l -195 0 l 0 530 l 0 530 l 195 0 l 195 0 l 0 -530 z m 380 90 l 0 -441 l -87 3 l -88 3 l -3 425 c -1 234 0 431 3 438 c 3 8 31 12 90 12 l 85 0 l 0 -440 z" stroke-linecap="round"/>
</g>
		<g transform="matrix(0.1333 0 0 -0.1333 -124.3503 183.7754)">
<path style="stroke: none; stroke-width: 1; stroke-dasharray: none; stroke-linecap: butt; stroke-dashoffset: 0; stroke-linejoin: miter; stroke-miterlimit: 4; is-custom-font: none; font-file-url: none; fill: rgb(255,255,255); fill-rule: nonzero; opacity: 1;" transform=" translate(-1627.3973, -1181.6598)" d="M 1559 1251 c -68 -68 -8 -184 85 -167 c 48 9 81 48 81 98 c 0 33 -6 45 -33 69 c -44 40 -93 40 -133 0 z" stroke-linecap="round"/>
</g>
</g>
</g>
</svg>