<svg xmlns="http://www.w3.org/2000/svg" xmlns:xlink="http://www.w3.org/1999/xlink" version="1.1" width="1000" height="1000" viewBox="0 0 1000 1000" xml:space="preserve">
<desc>Created with Fabric.js 3.5.0</desc>
<defs>
</defs>
<rect x="0" y="0" width="100%" height="100%" fill="rgba(255,255,255,0)"/>
<g transform="matrix(1 0 0 1 500 500)" id="378688">
<g style="" vector-effect="non-scaling-stroke">
		<g transform="matrix(0.1333 0 0 -0.1333 -0.1317 0.0303)">
<path style="stroke: none; stroke-width: 1; stroke-dasharray: none; stroke-linecap: butt; stroke-dashoffset: 0; stroke-linejoin: miter; stroke-miterlimit: 4; is-custom-font: none; font-file-url: none; fill: rgb(255,255,255); fill-rule: nonzero; opacity: 1;" transform=" translate(-2559.5, -2559.1325)" d="M 955 5106 c -84 -21 -147 -57 -211 -121 c -65 -65 -105 -136 -123 -223 c -16 -76 -16 -4329 0 -4404 c 37 -172 175 -310 347 -347 c 75 -16 3108 -16 3184 0 c 170 36 311 178 347 347 c 8 38 11 545 11 1748 c 0 1532 -2 1698 -16 1727 c -22 44 -1220 1244 -1266 1268 c -36 18 -68 19 -1130 18 c -839 -1 -1105 -4 -1143 -13 z m 2055 -681 c 0 -256 4 -413 11 -447 c 37 -172 175 -310 347 -347 c 34 -7 191 -11 447 -11 l 395 0 l 0 -1600 c 0 -1585 0 -1601 -20 -1640 c -13 -26 -34 -47 -60 -60 c -39 -20 -56 -20 -1571 -20 l -1531 0 l -40 22 c -24 14 -48 38 -59 60 c -18 36 -19 95 -19 2180 c 1 2044 2 2145 19 2177 c 10 18 35 44 57 57 l 39 24 l 993 0 l 992 0 l 0 -395 z m 699 -503 c -275 -2 -281 -2 -321 20 c -75 42 -78 58 -78 380 l 0 283 l 340 -340 l 340 -340 l -281 -3 z" stroke-linecap="round"/>
</g>
		<g transform="matrix(0.1333 0 0 -0.1333 -0.035 -38.6716)">
<path style="stroke: none; stroke-width: 1; stroke-dasharray: none; stroke-linecap: butt; stroke-dashoffset: 0; stroke-linejoin: miter; stroke-miterlimit: 4; is-custom-font: none; font-file-url: none; fill: rgb(255,255,255); fill-rule: nonzero; opacity: 1;" transform=" translate(-2560, -2850)" d="M 1588 2979 c -43 -22 -78 -81 -78 -129 c 0 -50 35 -107 80 -130 c 38 -20 57 -20 970 -20 c 913 0 932 0 970 20 c 45 23 80 80 80 130 c 0 50 -35 107 -80 130 c -38 20 -56 20 -972 20 c -909 -1 -934 -1 -970 -21 z" stroke-linecap="round"/>
</g>
		<g transform="matrix(0.1333 0 0 -0.1333 -0.035 41.3284)">
<path style="stroke: none; stroke-width: 1; stroke-dasharray: none; stroke-linecap: butt; stroke-dashoffset: 0; stroke-linejoin: miter; stroke-miterlimit: 4; is-custom-font: none; font-file-url: none; fill: rgb(255,255,255); fill-rule: nonzero; opacity: 1;" transform=" translate(-2560, -2250)" d="M 1588 2379 c -43 -22 -78 -81 -78 -129 c 0 -50 35 -107 80 -130 c 38 -20 57 -20 970 -20 c 913 0 932 0 970 20 c 45 23 80 80 80 130 c 0 50 -35 107 -80 130 c -38 20 -56 20 -972 20 c -909 -1 -934 -1 -970 -21 z" stroke-linecap="round"/>
</g>
		<g transform="matrix(0.1333 0 0 -0.1333 -0.035 121.3284)">
<path style="stroke: none; stroke-width: 1; stroke-dasharray: none; stroke-linecap: butt; stroke-dashoffset: 0; stroke-linejoin: miter; stroke-miterlimit: 4; is-custom-font: none; font-file-url: none; fill: rgb(255,255,255); fill-rule: nonzero; opacity: 1;" transform=" translate(-2560, -1650)" d="M 1588 1779 c -43 -22 -78 -81 -78 -129 c 0 -50 35 -107 80 -130 c 38 -20 57 -20 970 -20 c 913 0 932 0 970 20 c 45 23 80 80 80 130 c 0 50 -35 107 -80 130 c -38 20 -56 20 -972 20 c -909 -1 -934 -1 -970 -21 z" stroke-linecap="round"/>
</g>
		<g transform="matrix(0.1333 0 0 -0.1333 -40.025 201.3284)">
<path style="stroke: none; stroke-width: 1; stroke-dasharray: none; stroke-linecap: butt; stroke-dashoffset: 0; stroke-linejoin: miter; stroke-miterlimit: 4; is-custom-font: none; font-file-url: none; fill: rgb(255,255,255); fill-rule: nonzero; opacity: 1;" transform=" translate(-2260, -1050)" d="M 1588 1179 c -43 -22 -78 -81 -78 -129 c 0 -50 35 -107 80 -130 c 38 -19 58 -20 670 -20 c 612 0 632 1 670 20 c 45 23 80 80 80 130 c 0 50 -35 107 -80 130 c -38 19 -57 20 -672 20 c -610 -1 -634 -2 -670 -21 z" stroke-linecap="round"/>
</g>
</g>
</g>
</svg>