<svg xmlns="http://www.w3.org/2000/svg" xmlns:xlink="http://www.w3.org/1999/xlink" version="1.1" width="1000" height="1000" viewBox="0 0 1000 1000" xml:space="preserve">
<desc>Created with Fabric.js 3.5.0</desc>
<defs>
</defs>
<rect x="0" y="0" width="100%" height="100%" fill="rgba(255,255,255,0)"/>
<g transform="matrix(37.8788 0 0 37.8788 500.0001 500.0001)" id="159561">
<g style="" vector-effect="non-scaling-stroke">
		<g transform="matrix(1 0 0 1 2.5 -1.5)">
<path style="stroke: none; stroke-width: 1; stroke-dasharray: none; stroke-linecap: butt; stroke-dashoffset: 0; stroke-linejoin: miter; stroke-miterlimit: 4; is-custom-font: none; font-file-url: none; fill: rgb(255,255,255); fill-rule: nonzero; opacity: 1;" transform=" translate(-14.5, -10.5)" d="M 12 8 v 5 h 5 v -2 h -3 V 8 z" stroke-linecap="round"/>
</g>
		<g transform="matrix(1 0 0 1 0 0.0002)">
<path style="stroke: none; stroke-width: 1; stroke-dasharray: none; stroke-linecap: butt; stroke-dashoffset: 0; stroke-linejoin: miter; stroke-miterlimit: 4; is-custom-font: none; font-file-url: none; fill: rgb(255,255,255); fill-rule: nonzero; opacity: 1;" transform=" translate(-12, -12.0002)" d="M 21.292 8.497 a 8.957 8.957 0 0 0 -1.928 -2.862 a 9.004 9.004 0 0 0 -4.55 -2.452 a 9.09 9.09 0 0 0 -3.626 0 a 8.965 8.965 0 0 0 -4.552 2.453 a 9.048 9.048 0 0 0 -1.928 2.86 A 8.963 8.963 0 0 0 4 12 l 0.001 0.025 H 2 L 5 16 l 3 -3.975 H 6.001 L 6 12 a 6.957 6.957 0 0 1 1.195 -3.913 a 7.066 7.066 0 0 1 1.891 -1.892 a 7.034 7.034 0 0 1 2.503 -1.054 a 7.003 7.003 0 0 1 8.269 5.445 a 7.117 7.117 0 0 1 0 2.824 a 6.936 6.936 0 0 1 -1.054 2.503 c -0.25 0.371 -0.537 0.72 -0.854 1.036 a 7.058 7.058 0 0 1 -2.225 1.501 a 6.98 6.98 0 0 1 -1.313 0.408 a 7.117 7.117 0 0 1 -2.823 0 a 6.957 6.957 0 0 1 -2.501 -1.053 a 7.066 7.066 0 0 1 -1.037 -0.855 l -1.414 1.414 A 8.985 8.985 0 0 0 13 21 a 9.05 9.05 0 0 0 3.503 -0.707 a 9.009 9.009 0 0 0 3.959 -3.26 A 8.968 8.968 0 0 0 22 12 a 8.928 8.928 0 0 0 -0.708 -3.503 z" stroke-linecap="round"/>
</g>
</g>
</g>
</svg>