<svg xmlns="http://www.w3.org/2000/svg" xmlns:xlink="http://www.w3.org/1999/xlink" version="1.1" width="1000" height="1000" viewBox="0 0 1000 1000" xml:space="preserve">
<desc>Created with Fabric.js 3.5.0</desc>
<defs>
</defs>
<rect x="0" y="0" width="100%" height="100%" fill="rgba(255,255,255,0)"/>
<g transform="matrix(1 0 0 1 49.5 49.5)" id="976170">
<rect style="stroke: none; stroke-width: 0; stroke-dasharray: none; stroke-linecap: butt; stroke-dashoffset: 0; stroke-linejoin: miter; stroke-miterlimit: 4; is-custom-font: none; font-file-url: none; fill: rgb(255,255,255); fill-opacity: 0; fill-rule: nonzero; opacity: 1;" x="-50" y="-50" rx="0" ry="0" width="100" height="100"/>
</g>
<g transform="matrix(1.6713 0 0 1.6713 499.802 499.9951)" id="614035">
<g style="">
		<g transform="matrix(0.1333 0 0 -0.1333 -179.9285 0.0081)" id="324222">
<path style="stroke: none; stroke-width: 1; stroke-dasharray: none; stroke-linecap: butt; stroke-dashoffset: 0; stroke-linejoin: miter; stroke-miterlimit: 4; is-custom-font: none; font-file-url: none; fill: rgb(255,255,255); fill-rule: nonzero; opacity: 1;" vector-effect="non-scaling-stroke" transform=" translate(-1210.3375, -2560.1309)" d="M 656 3949 c -125 -20 -240 -112 -299 -237 l -32 -67 l -3 -296 c -4 -351 -9 -332 108 -355 c 200 -37 334 -173 362 -364 c 22 -148 -25 -293 -127 -389 c -65 -62 -135 -96 -235 -115 c -117 -22 -112 -4 -108 -355 l 3 -296 l 32 -67 c 62 -132 175 -217 316 -239 c 37 -6 121 -9 187 -7 c 108 3 122 5 142 25 c 27 28 30 86 5 111 c -15 14 -44 18 -180 23 c -181 6 -214 16 -281 85 c -59 60 -66 99 -66 344 l 0 216 l 72 21 c 237 70 398 302 398 573 c 0 271 -161 503 -397 573 l -73 21 l 0 216 c 0 245 7 284 66 344 c 19 20 54 46 77 59 c 41 22 50 22 430 25 l 387 3 l 0 -68 c 0 -38 6 -75 13 -84 c 34 -45 92 -46 127 -2 c 15 20 20 41 20 89 l 0 64 l 228 0 c 226 0 229 0 250 23 c 40 42 24 105 -32 127 c -33 12 -1315 12 -1390 -1 z" stroke-linecap="round"/>
</g>
		<g transform="matrix(0.1333 0 0 -0.1333 58.0063 -0.0247)" id="324222">
<path style="stroke: none; stroke-width: 1; stroke-dasharray: none; stroke-linecap: butt; stroke-dashoffset: 0; stroke-linejoin: miter; stroke-miterlimit: 4; is-custom-font: none; font-file-url: none; fill: rgb(255,255,255); fill-rule: nonzero; opacity: 1;" vector-effect="non-scaling-stroke" transform=" translate(-2995.0774, -2560.3772)" d="M 2315 3950 c -48 -19 -63 -82 -31 -126 c 14 -19 40 -19 1093 -24 l 1078 -5 l 42 -22 c 23 -13 58 -39 77 -59 c 59 -60 66 -99 66 -344 l 0 -216 l -67 -22 c -131 -42 -224 -111 -304 -225 c -74 -105 -102 -201 -102 -347 c 0 -146 28 -242 102 -347 c 80 -114 173 -183 304 -225 l 68 -22 l -3 -231 c -3 -202 -5 -235 -22 -268 c -26 -52 -72 -96 -126 -121 c -45 -21 -49 -21 -1467 -24 l -1423 -2 l 0 64 c 0 54 -4 70 -23 92 c -31 35 -77 37 -112 4 c -22 -21 -25 -32 -25 -92 l 0 -68 l -104 0 c -101 0 -105 -1 -125 -26 c -29 -36 -27 -75 5 -105 l 26 -24 l 1571 -3 c 1002 -1 1595 1 1637 7 c 138 22 251 108 313 239 l 32 67 l 3 296 c 4 352 10 334 -112 355 c -101 17 -174 52 -230 107 c -81 82 -126 197 -126 327 c 0 130 45 245 126 327 c 56 55 129 90 230 107 c 122 21 116 3 112 355 l -3 296 l -32 67 c -61 129 -174 216 -308 238 c -73 12 -2111 12 -2140 0 z" stroke-linecap="round"/>
</g>
		<g transform="matrix(0.1333 0 0 -0.1333 53.0212 0.2076)" id="324222">
<path style="stroke: none; stroke-width: 1; stroke-dasharray: none; stroke-linecap: butt; stroke-dashoffset: 0; stroke-linejoin: miter; stroke-miterlimit: 4; is-custom-font: none; font-file-url: none; fill: rgb(255,255,255); fill-rule: nonzero; opacity: 1;" vector-effect="non-scaling-stroke" transform=" translate(-2957.5, -2558.7222)" d="M 3565 3597 c -71 -24 -87 -37 -276 -224 l -185 -184 l -89 21 c -348 81 -762 170 -793 170 c -33 0 -47 -11 -174 -138 c -125 -125 -138 -141 -138 -173 c 0 -24 7 -42 23 -56 c 12 -11 161 -91 331 -178 l 308 -158 l -83 -83 l -84 -84 l -197 0 c -108 0 -208 -4 -222 -10 c -45 -17 -50 -41 -54 -265 c -6 -292 -15 -282 256 -250 c 70 8 142 17 159 20 l 32 6 l -6 -209 l -6 -208 l 29 -23 c 29 -23 31 -23 231 -18 c 112 3 211 11 221 16 c 33 18 40 60 46 271 l 6 205 l 73 72 l 72 73 l 164 -317 c 90 -175 173 -328 184 -341 c 14 -15 32 -22 58 -22 c 35 0 46 9 174 142 c 75 79 138 152 141 163 c 2 11 -13 103 -35 205 c -44 200 -54 220 -113 220 c -35 0 -78 -39 -78 -72 c 0 -12 14 -87 31 -167 l 31 -144 l -63 -63 c -35 -35 -66 -64 -70 -64 c -3 0 -80 142 -169 316 c -90 175 -171 325 -181 335 c -11 11 -33 19 -52 19 c -29 0 -50 -17 -179 -147 l -146 -148 l -7 -192 c -9 -221 3 -203 -128 -203 l -78 0 l 7 209 l 7 209 l -26 26 c -31 31 -22 31 -221 6 c -232 -29 -207 -39 -204 83 l 3 102 l 185 5 c 114 3 193 10 205 17 c 11 6 84 76 163 155 c 152 154 161 171 123 220 c -11 14 -150 90 -330 182 c -171 88 -311 162 -311 165 c 0 4 28 34 63 68 l 62 61 l 435 -99 c 239 -54 444 -95 455 -92 c 11 3 110 94 220 203 c 219 217 238 229 330 216 c 80 -13 155 -100 155 -182 c 0 -69 -20 -94 -221 -292 c -110 -107 -202 -206 -205 -219 c -10 -38 47 -293 71 -321 c 28 -33 76 -34 110 -2 c 31 29 31 38 3 171 l -21 105 l 181 178 c 220 216 236 242 237 381 c 0 108 -19 158 -91 235 c -65 70 -136 103 -233 107 c -45 2 -92 -3 -116 -10 z" stroke-linecap="round"/>
</g>
		<g transform="matrix(0.1333 0 0 -0.1333 -138.6133 -83.2677)" id="324222">
<path style="stroke: none; stroke-width: 1; stroke-dasharray: none; stroke-linecap: butt; stroke-dashoffset: 0; stroke-linejoin: miter; stroke-miterlimit: 4; is-custom-font: none; font-file-url: none; fill: rgb(255,255,255); fill-rule: nonzero; opacity: 1;" vector-effect="non-scaling-stroke" transform=" translate(-1520, -3185)" d="M 1465 3355 c -24 -23 -25 -28 -25 -170 c 0 -142 1 -147 25 -170 c 15 -16 36 -25 55 -25 c 19 0 40 9 55 25 c 24 23 25 28 25 170 c 0 142 -1 147 -25 170 c -15 16 -36 25 -55 25 c -19 0 -40 -9 -55 -25 z" stroke-linecap="round"/>
</g>
		<g transform="matrix(0.1333 0 0 -0.1333 -138.5466 0.276)" id="324222">
<path style="stroke: none; stroke-width: 1; stroke-dasharray: none; stroke-linecap: butt; stroke-dashoffset: 0; stroke-linejoin: miter; stroke-miterlimit: 4; is-custom-font: none; font-file-url: none; fill: rgb(255,255,255); fill-rule: nonzero; opacity: 1;" vector-effect="non-scaling-stroke" transform=" translate(-1520.5, -2558.4222)" d="M 1485 2748 c -41 -24 -44 -38 -44 -188 c 0 -151 3 -166 46 -188 c 34 -18 52 -14 84 17 l 29 29 l 0 141 c 0 131 -1 141 -22 165 c -27 30 -66 40 -93 24 z" stroke-linecap="round"/>
</g>
		<g transform="matrix(0.1333 0 0 -0.1333 -138.6133 83.3991)" id="324222">
<path style="stroke: none; stroke-width: 1; stroke-dasharray: none; stroke-linecap: butt; stroke-dashoffset: 0; stroke-linejoin: miter; stroke-miterlimit: 4; is-custom-font: none; font-file-url: none; fill: rgb(255,255,255); fill-rule: nonzero; opacity: 1;" vector-effect="non-scaling-stroke" transform=" translate(-1520, -1935)" d="M 1465 2105 c -24 -23 -25 -29 -25 -168 c 0 -131 2 -147 21 -171 c 16 -20 29 -26 59 -26 c 30 0 43 6 59 26 c 19 24 21 40 21 171 c 0 139 -1 145 -25 168 c -15 16 -36 25 -55 25 c -19 0 -40 -9 -55 -25 z" stroke-linecap="round"/>
</g>
</g>
</g>
</svg>