<svg xmlns="http://www.w3.org/2000/svg" xmlns:xlink="http://www.w3.org/1999/xlink" version="1.1" width="1000" height="1000" viewBox="0 0 1000 1000" xml:space="preserve">
<desc>Created with Fabric.js 3.5.0</desc>
<defs>
</defs>
<rect x="0" y="0" width="100%" height="100%" fill="rgba(255,255,255,0)"/>
<g transform="matrix(1 0 0 1 500 500)" id="177375">
<g style="" vector-effect="non-scaling-stroke">
		<g transform="matrix(0.1333 0 0 -0.1333 -4.9893 -177.0201)">
<path style="stroke: none; stroke-width: 1; stroke-dasharray: none; stroke-linecap: butt; stroke-dashoffset: 0; stroke-linejoin: miter; stroke-miterlimit: 4; is-custom-font: none; font-file-url: none; fill: rgb(255,255,255); fill-rule: nonzero; opacity: 1;" transform=" translate(-2522.8882, -3887.343)" d="M 2335 5105 c -273 -42 -517 -172 -708 -375 c -210 -223 -319 -481 -334 -790 c -21 -432 191 -845 557 -1084 c 180 -118 353 -178 563 -195 c 389 -30 721 92 989 365 c 213 216 321 452 347 753 c 36 402 -116 776 -419 1038 c -196 168 -376 252 -625 288 c -120 17 -260 18 -370 0 z" stroke-linecap="round"/>
</g>
		<g transform="matrix(0.1333 0 0 -0.1333 -0.7492 164.6863)">
<path style="stroke: none; stroke-width: 1; stroke-dasharray: none; stroke-linecap: butt; stroke-dashoffset: 0; stroke-linejoin: miter; stroke-miterlimit: 4; is-custom-font: none; font-file-url: none; fill: rgb(255,255,255); fill-rule: nonzero; opacity: 1;" transform=" translate(-2554.9146, -1324.5215)" d="M 1427 2639 c -452 -48 -766 -372 -912 -944 c -97 -381 -122 -839 -60 -1090 c 51 -201 218 -405 411 -503 c 87 -44 212 -80 317 -92 c 62 -8 534 -10 1437 -8 l 1345 3 l 85 24 c 316 86 532 298 611 596 c 41 155 36 525 -12 817 c -105 650 -371 1040 -792 1162 c -96 28 -268 49 -319 39 c -49 -9 -117 -45 -271 -144 c -164 -106 -187 -118 -310 -164 c -142 -53 -259 -76 -396 -76 c -140 0 -248 20 -390 70 c -134 48 -140 51 -350 184 c -110 70 -192 115 -224 124 c -56 14 -56 14 -170 2 z" stroke-linecap="round"/>
</g>
</g>
</g>
</svg>