<svg xmlns="http://www.w3.org/2000/svg" xmlns:xlink="http://www.w3.org/1999/xlink" version="1.1" width="1000" height="1000" viewBox="0 0 1000 1000" xml:space="preserve">
<desc>Created with Fabric.js 3.5.0</desc>
<defs>
</defs>
<rect x="0" y="0" width="100%" height="100%" fill="rgba(255,255,255,0)"/>
<g transform="matrix(1 0 0 1 500 500)" id="630875">
<g style="" vector-effect="non-scaling-stroke">
		<g transform="matrix(0.1333 0 0 -0.1333 -0.0866 -0.2074)">
<path style="stroke: none; stroke-width: 1; stroke-dasharray: none; stroke-linecap: butt; stroke-dashoffset: 0; stroke-linejoin: miter; stroke-miterlimit: 4; is-custom-font: none; font-file-url: none; fill: rgb(255,255,255); fill-rule: nonzero; opacity: 1;" transform=" translate(-2559.9901, -2560.916)" d="M 412 5100 c -99 -26 -174 -71 -252 -149 c -77 -79 -114 -142 -140 -247 c -20 -75 -20 -115 -20 -1603 c 0 -1688 -3 -1600 65 -1730 c 65 -124 189 -228 324 -273 c 65 -22 77 -22 751 -26 l 686 -3 l 213 -427 c 117 -235 233 -454 256 -488 c 144 -202 386 -202 530 0 c 23 34 139 253 256 488 l 213 427 l 686 3 c 762 4 725 1 859 75 c 129 71 236 216 266 360 c 12 57 15 308 15 1594 c 0 1490 0 1528 -20 1603 c -26 103 -69 177 -149 256 c -78 77 -142 113 -247 140 c -76 20 -117 20 -2148 19 c -2010 0 -2073 -1 -2144 -19 z m 4241 -296 c 28 -10 65 -34 91 -60 c 82 -82 77 50 74 -1664 l -3 -1525 l -22 -41 c -12 -22 -39 -56 -59 -74 c -78 -68 -32 -64 -849 -70 c -689 -5 -743 -6 -768 -23 c -21 -13 -88 -138 -271 -505 c -134 -268 -253 -498 -265 -512 l -21 -25 l -21 25 c -12 14 -131 244 -265 512 c -183 367 -250 492 -271 505 c -25 17 -79 18 -768 23 c -685 5 -743 6 -780 23 c -50 23 -100 70 -128 122 l -22 40 l -3 1525 c -3 1714 -8 1584 73 1665 c 79 80 -112 73 2181 74 c 1856 1 2055 -1 2097 -15 z" stroke-linecap="round"/>
</g>
		<g transform="matrix(0.1333 0 0 -0.1333 -0.0157 -146.8296)">
<path style="stroke: none; stroke-width: 1; stroke-dasharray: none; stroke-linecap: butt; stroke-dashoffset: 0; stroke-linejoin: miter; stroke-miterlimit: 4; is-custom-font: none; font-file-url: none; fill: rgb(255,255,255); fill-rule: nonzero; opacity: 1;" transform=" translate(-2560, -3661.0181)" d="M 2490 4474 c -47 -9 -145 -47 -184 -72 c -98 -62 -182 -183 -206 -296 c -7 -36 -10 -193 -8 -478 c 3 -417 3 -424 27 -481 c 51 -129 170 -241 298 -283 c 79 -25 208 -25 288 1 c 126 41 245 153 296 282 c 24 57 24 64 27 481 c 2 285 -1 442 -8 478 c -33 158 -156 293 -316 348 c -50 17 -169 28 -214 20 z m 135 -313 c 46 -21 79 -54 94 -94 c 17 -45 15 -779 -3 -820 c -19 -46 -77 -94 -124 -102 c -79 -13 -164 34 -191 108 c -15 39 -15 775 0 814 c 21 57 100 113 159 113 c 14 0 43 -9 65 -19 z" stroke-linecap="round"/>
</g>
		<g transform="matrix(0.1333 0 0 -0.1333 0.0294 70.7444)">
<path style="stroke: none; stroke-width: 1; stroke-dasharray: none; stroke-linecap: butt; stroke-dashoffset: 0; stroke-linejoin: miter; stroke-miterlimit: 4; is-custom-font: none; font-file-url: none; fill: rgb(255,255,255); fill-rule: nonzero; opacity: 1;" transform=" translate(-2560.3383, -2029.2996)" d="M 2453 2486 c -124 -30 -248 -124 -305 -232 c -96 -178 -70 -392 64 -539 c 95 -104 209 -155 348 -155 c 307 0 532 289 455 585 c -64 246 -318 400 -562 341 z m 164 -297 c 95 -35 139 -149 93 -239 c -31 -61 -73 -85 -150 -85 c -77 0 -119 24 -150 85 c -69 136 66 292 207 239 z" stroke-linecap="round"/>
</g>
</g>
</g>
</svg>